<svg xmlns="http://www.w3.org/2000/svg" viewBox="0 0 256 256" role="img" aria-label="Soft Ninety Nine logo">
  <defs>
    <linearGradient id="bg" x1="0%" x2="100%" y1="0%" y2="100%">
      <stop offset="0%" stop-color="#1b1b1b" />
      <stop offset="100%" stop-color="#0b0b0b" />
    </linearGradient>
    <linearGradient id="accent" x1="0%" x2="100%" y1="0%" y2="100%">
      <stop offset="0%" stop-color="#ff3141" />
      <stop offset="100%" stop-color="#e50914" />
    </linearGradient>
  </defs>
  <rect width="256" height="256" rx="48" fill="url(#bg)" />
  <circle cx="128" cy="88" r="68" fill="url(#accent)" opacity="0.95" />
  <path d="M78 112c14-20 32-32 50-32 20 0 34 12 34 28s-12 26-28 26c-10 0-18-4-24-10l-6 20c10 8 22 12 34 12 28 0 50-18 50-46s-24-48-54-48c-26 0-50 14-64 38l8 12z" fill="#fff" opacity="0.9" />
  <text x="128" y="198" text-anchor="middle" font-size="44" font-weight="700" font-family="'Cairo', 'Inter', 'Segoe UI', sans-serif" fill="#ffffff">
    سوفت٩٩
  </text>
  <text x="128" y="228" text-anchor="middle" font-size="20" font-weight="500" font-family="'Inter', 'Segoe UI', sans-serif" fill="#b3b3b3">
    Soft Ninety Nine
  </text>
</svg>
